<?xml version="1.0" standalone="no"?>
<!DOCTYPE svg PUBLIC "-//W3C//DTD SVG 1.1//EN" "http://www.w3.org/Graphics/SVG/1.1/DTD/svg11.dtd" >
<!--
2013-9-30: Created.
-->
<svg>
<metadata>
Created by iconfont
</metadata>
<defs>

<font id="iconfont" horiz-adv-x="1024" >
  <font-face
    font-family="iconfont"
    font-weight="500"
    font-stretch="normal"
    units-per-em="1024"
    ascent="896"
    descent="-128"
  />
    <missing-glyph />
    
    <glyph glyph-name="xiao16_duigou" unicode="&#58937;" d="M512 832a448 448 0 1 0 0-896A448 448 0 0 0 512 832z m0-128a320 320 0 1 1 0-640A320 320 0 0 1 512 704z m169.344-169.344l45.312-45.312a32 32 0 0 0 0-45.248l-256-256a32 32 0 0 0-45.312 0l-128 128a32 32 0 0 0 0 45.248l45.312 45.312a32 32 0 0 0 45.248 0L448 346.56l188.16 188.096a32 32 0 0 0 45.184 0z"  horiz-adv-x="1024" />

    
    <glyph glyph-name="xiao16_tiaozhuan" unicode="&#58936;" d="M352 768a32 32 0 0 0 32-32v-64a32 32 0 0 0-32-32H256v-512h512v96a32 32 0 0 0 32 32h64a32 32 0 0 0 32-32V64a64 64 0 0 0-64-64H192a64 64 0 0 0-64 64V704a64 64 0 0 0 64 64h160z m512 0a32 32 0 0 0 32-32v-320a32 32 0 0 0-32-32h-64a32 32 0 0 0-32 32V549.504l-297.344-297.408a32 32 0 0 0-45.312 0l-45.248 45.248a32 32 0 0 0 0 45.312L677.376 640H544a32 32 0 0 0-32 32v64a32 32 0 0 0 32 32h320z"  horiz-adv-x="1024" />

    
    <glyph glyph-name="cebiandaohang20_kehu" unicode="&#58935;" d="M628.736 844.8a51.2 51.2 0 0 0 48.5376-35.0208l5.376-16.1792H819.2a102.4 102.4 0 0 0 102.4-102.4v-614.4a102.4 102.4 0 0 0-102.4-102.4H204.8a102.4 102.4 0 0 0-102.4 102.4V691.2a102.4 102.4 0 0 0 102.4 102.4h136.4992l5.4272 16.1792A51.2 51.2 0 0 0 395.3152 844.8h233.3696zM665.6 332.8H358.4a51.2 51.2 0 0 1-51.2-51.2v-51.2a51.2 51.2 0 0 1 51.2-51.2h307.2a51.2 51.2 0 0 1 51.2 51.2v51.2a51.2 51.2 0 0 1-51.2 51.2z m-153.6 256a102.4 102.4 0 1 1 0-204.8 102.4 102.4 0 0 1 0 204.8z"  horiz-adv-x="1024" />

    
    <glyph glyph-name="xiao16_fasong" unicode="&#58934;" d="M352 384.256a32 32 0 0 0 32-32v-64a32 32 0 0 0-32-32H256v-128h512v128h-96a32 32 0 0 0-32 32v64a32 32 0 0 0 32 32H832a64 64 0 0 0 64-64v-256a64 64 0 0 0-64-64H192a64 64 0 0 0-64 64v256a64 64 0 0 0 64 64h160z m205.248 402.752l233.408-233.344a32 32 0 0 0 0-45.248l-45.312-45.312a32 32 0 0 0-45.248 0L576 587.264v-363.008a32 32 0 0 0-32-32h-64a32 32 0 0 0-32 32V587.264l-124.16-124.16a32 32 0 0 0-45.184 0l-45.312 45.312a32 32 0 0 0 0 45.248l233.408 233.344a64 64 0 0 0 90.496 0z"  horiz-adv-x="1024" />

    
    <glyph glyph-name="zhong20_diannao" unicode="&#58932;" d="M460.8 179.2H153.6a51.2 51.2 0 0 0-51.2 51.2V640a51.2 51.2 0 0 0 51.2 51.2h716.8a51.2 51.2 0 0 0 51.2-51.2v-409.6a51.2 51.2 0 0 0-51.2-51.2h-307.2v-51.2h204.8v-51.2H256v51.2h204.8v51.2z m358.4 409.6H204.8v-307.2h614.4V588.8z"  horiz-adv-x="1024" />

    
    <glyph glyph-name="zhong20_shouji" unicode="&#58933;" d="M768 793.6a51.2 51.2 0 0 0 51.2-51.2v-716.8a51.2 51.2 0 0 0-51.2-51.2H256a51.2 51.2 0 0 0-51.2 51.2V742.4a51.2 51.2 0 0 0 51.2 51.2h512z m-51.2-102.4H307.2v-614.4h409.6V691.2z m-102.4-512v-51.2H409.6v51.2h204.8z"  horiz-adv-x="1024" />

    
    <glyph glyph-name="xiao16_xiangqing" unicode="&#58883;" d="M544 192a32 32 0 0 0 32-32v-64a32 32 0 0 0-32-32h-320a32 32 0 0 0-32 32v64a32 32 0 0 0 32 32h320z m256 256a32 32 0 0 0 32-32v-64a32 32 0 0 0-32-32h-576a32 32 0 0 0-32 32v64a32 32 0 0 0 32 32h576z m0 256a32 32 0 0 0 32-32v-64a32 32 0 0 0-32-32h-576a32 32 0 0 0-32 32v64a32 32 0 0 0 32 32h576z"  horiz-adv-x="1024" />

    
    <glyph glyph-name="xiao16_ziliao" unicode="&#58930;" d="M613.504 832a64 64 0 0 0 45.248-18.752l218.496-218.496a64 64 0 0 0 18.752-45.248V0a64 64 0 0 0-64-64H192a64 64 0 0 0-64 64V768a64 64 0 0 0 64 64h421.504zM448 704H256v-640h512V384H544a96 96 0 0 0-95.552 86.784L448 480V704z m160-384a32 32 0 0 0 32-32v-64a32 32 0 0 0-32-32h-192a32 32 0 0 0-32 32v64a32 32 0 0 0 32 32h192z m-21.056 384H576v-192h192v10.944L586.944 704z"  horiz-adv-x="1024" />

    
    <glyph glyph-name="xiao16_guanlian" unicode="&#58931;" d="M896 768a64 64 0 0 0 64-64v-640a64 64 0 0 0-64-64h-256v128h192V640h-192V768h256zM384 768v-128H192v-512h192v-128H128a64 64 0 0 0-64 64V704a64 64 0 0 0 64 64h256z m288-320a32 32 0 0 0 32-32v-64a32 32 0 0 0-32-32h-320a32 32 0 0 0-32 32v64a32 32 0 0 0 32 32h320z"  horiz-adv-x="1024" />

    
    <glyph glyph-name="da24_gongsiziliao1" unicode="&#58928;" d="M554.666667 768a42.666667 42.666667 0 0 0 42.666666-42.666667v-682.666666a42.666667 42.666667 0 0 0-42.666666-42.666667H170.666667a42.666667 42.666667 0 0 0-42.666667 42.666667V725.333333a42.666667 42.666667 0 0 0 42.666667 42.666667h384z m298.666666-213.333333a42.666667 42.666667 0 0 0 42.368-37.674667L896 512v-469.333333a42.666667 42.666667 0 0 0-37.674667-42.368L853.333333 0h-170.666666a42.666667 42.666667 0 0 0-42.368 37.674667L640 42.666667V512a42.666667 42.666667 0 0 0 37.674667 42.368L682.666667 554.666667h170.666666z m-362.666666-298.666667h-256a21.333333 21.333333 0 0 1-21.333334-21.333333v-42.666667a21.333333 21.333333 0 0 1 21.333334-21.333333h256a21.333333 21.333333 0 0 1 21.333333 21.333333v42.666667a21.333333 21.333333 0 0 1-21.333333 21.333333z m320 0h-85.333334a21.333333 21.333333 0 0 1-21.333333-21.333333v-42.666667a21.333333 21.333333 0 0 1 21.333333-21.333333h85.333334a21.333333 21.333333 0 0 1 21.333333 21.333333v42.666667a21.333333 21.333333 0 0 1-21.333333 21.333333z m-320 170.666667h-256a21.333333 21.333333 0 0 1-21.333334-21.333334v-42.666666a21.333333 21.333333 0 0 1 21.333334-21.333334h256a21.333333 21.333333 0 0 1 21.333333 21.333334v42.666666a21.333333 21.333333 0 0 1-21.333333 21.333334z m320 0h-85.333334a21.333333 21.333333 0 0 1-21.333333-21.333334v-42.666666a21.333333 21.333333 0 0 1 21.333333-21.333334h85.333334a21.333333 21.333333 0 0 1 21.333333 21.333334v42.666666a21.333333 21.333333 0 0 1-21.333333 21.333334z m-320 170.666666h-256a21.333333 21.333333 0 0 1-21.333334-21.333333v-42.666667a21.333333 21.333333 0 0 1 21.333334-21.333333h256a21.333333 21.333333 0 0 1 21.333333 21.333333v42.666667a21.333333 21.333333 0 0 1-21.333333 21.333333z"  horiz-adv-x="1024" />

    
    <glyph glyph-name="da24_tuanduichengyuan1" unicode="&#58929;" d="M517.333333 384c273.834667 0 287.317333-109.909333 288-249.6v-21.930667c0-147.669333-558.677333-149.930667-575.573333-6.698666l-0.426667 6.698666v21.930667c0.682667 139.690667 14.165333 249.6 288 249.6z m-239.445333-0.341333c-62.677333-40.192-89.045333-106.922667-95.146667-205.653334l-0.64-13.056-0.512-16.213333-0.170666-8.277333-0.042667-8.405334-0.042667-19.541333 0.085334-3.669333c-52.693333 12.586667-91.392 34.474667-95.701334 65.706666L85.333333 180.352v18.901333c0.682667 99.370667 11.306667 178.090667 192 184.32l0.554667 0.085334z m478.848 0c181.290667-6.144 191.914667-84.906667 192.554667-184.405334l0.042666-12.544v-6.357333c0-34.304-40.234667-58.154667-96.128-71.552l0.128 3.669333v19.456l-0.085333 8.448-0.085333 4.181334-0.085334 4.138666-0.512 16.213334c-4.522667 105.984-30.378667 176.810667-95.829333 218.752z m-23.424 288.341333C799.616 672 853.333333 612.906667 853.333333 539.989333c0-72.874667-53.76-132.010667-120.021333-132.010666-28.202667 0-54.186667 10.752-74.666667 28.672a215.466667 215.466667 0 0 1 74.666667 163.370666c0 24.96-4.224 48.981333-12.032 71.253334a102.826667 102.826667 0 0 0 12.032 0.725333z m-432 0c4.096 0 8.106667-0.213333 12.074667-0.64a216.064 216.064 0 0 1-12.032-71.381333c0-65.237333 28.928-123.733333 74.666666-163.328-20.48-17.92-46.464-28.629333-74.666666-28.629334-66.304 0-120.021333 59.093333-120.021334 131.968 0 72.917333 53.76 132.010667 120.021334 132.010667zM517.333333 768a168.021333 168.021333 0 1 0 0-336 168.021333 168.021333 0 0 0 0 336z"  horiz-adv-x="1024" />

    
    <glyph glyph-name="zhong20x36_fangxingjiahao" unicode="&#58923;" d="M1638.4 896a204.8 204.8 0 0 0 204.8-204.8v-614.4a204.8 204.8 0 0 0-204.8-204.8H204.8a204.8 204.8 0 0 0-204.8 204.8V691.2a204.8 204.8 0 0 0 204.8 204.8h1433.6zM972.8 640h-102.4v-204.8h-204.8v-102.4h204.7488L870.4 128h102.4l-0.0512 204.8H1177.6V435.2h-204.8V640z"  horiz-adv-x="1843" />

    
    <glyph glyph-name="zhong20x36_fangxingjianhao" unicode="&#58924;" d="M1638.4 896a204.8 204.8 0 0 0 204.8-204.8v-614.4a204.8 204.8 0 0 0-204.8-204.8H204.8a204.8 204.8 0 0 0-204.8 204.8V691.2a204.8 204.8 0 0 0 204.8 204.8h1433.6z m-460.8-460.8H665.6v-102.4h512V435.2z"  horiz-adv-x="1843" />

    
    <glyph glyph-name="cebiandaohang20_yonghuguanli1" unicode="&#58925;" d="M819.2 281.6a102.4 102.4 0 0 0 102.4-102.4v-102.4a102.4 102.4 0 0 0-102.4-102.4H204.8a102.4 102.4 0 0 0-102.4 102.4v102.4a102.4 102.4 0 0 0 102.4 102.4h614.4zM512 793.6a204.8 204.8 0 1 0 0-409.6 204.8 204.8 0 0 0 0 409.6z"  horiz-adv-x="1024" />

    
    <glyph glyph-name="da24_gongsiziliao" unicode="&#58926;" d="M554.666667 768a42.666667 42.666667 0 0 0 42.666666-42.666667v-682.666666a42.666667 42.666667 0 0 0-42.666666-42.666667H170.666667a42.666667 42.666667 0 0 0-42.666667 42.666667V725.333333a42.666667 42.666667 0 0 0 42.666667 42.666667h384z m298.666666-170.666667a42.666667 42.666667 0 0 0 42.368-37.674666L896 554.666667v-512a42.666667 42.666667 0 0 0-37.674667-42.368L853.333333 0h-170.666666a42.666667 42.666667 0 0 0-42.368 37.674667L640 42.666667V554.666667a42.666667 42.666667 0 0 0 37.674667 42.368L682.666667 597.333333h170.666666z m-362.666666-384h-256a21.333333 21.333333 0 0 1-20.992-17.493333L213.333333 192v-42.666667a21.333333 21.333333 0 0 1 17.493334-20.992L234.666667 128h256a21.333333 21.333333 0 0 1 20.992 17.493333L512 149.333333v42.666667a21.333333 21.333333 0 0 1-21.333333 21.333333z m298.666666 0h-42.666666a21.333333 21.333333 0 0 1-20.992-17.493333L725.333333 192v-42.666667a21.333333 21.333333 0 0 1 17.493334-20.992l3.84-0.341333h42.666666a21.333333 21.333333 0 0 1 20.992 17.493333L810.666667 149.333333v42.666667a21.333333 21.333333 0 0 1-21.333334 21.333333z m-469.333333 170.666667h-85.333333a21.333333 21.333333 0 0 1-20.992-17.493333L213.333333 362.666667v-42.666667a21.333333 21.333333 0 0 1 17.493334-20.992L234.666667 298.666667h85.333333a21.333333 21.333333 0 0 1 20.992 17.493333L341.333333 320v42.666667a21.333333 21.333333 0 0 1-21.333333 21.333333z m170.666667 0h-85.333334a21.333333 21.333333 0 0 1-20.992-17.493333L384 362.666667v-42.666667a21.333333 21.333333 0 0 1 17.493333-20.992L405.333333 298.666667h85.333334a21.333333 21.333333 0 0 1 20.992 17.493333L512 320v42.666667a21.333333 21.333333 0 0 1-21.333333 21.333333z m298.666666 0h-42.666666a21.333333 21.333333 0 0 1-20.992-17.493333L725.333333 362.666667v-42.666667a21.333333 21.333333 0 0 1 17.493334-20.992l3.84-0.341333h42.666666a21.333333 21.333333 0 0 1 20.992 17.493333L810.666667 320v42.666667a21.333333 21.333333 0 0 1-21.333334 21.333333z m-469.333333 170.666667h-85.333333a21.333333 21.333333 0 0 1-20.992-17.493334L213.333333 533.333333v-42.666666a21.333333 21.333333 0 0 1 17.493334-20.992L234.666667 469.333333h85.333333a21.333333 21.333333 0 0 1 20.992 17.493334L341.333333 490.666667v42.666666a21.333333 21.333333 0 0 1-21.333333 21.333334z m170.666667 0h-85.333334a21.333333 21.333333 0 0 1-20.992-17.493334L384 533.333333v-42.666666a21.333333 21.333333 0 0 1 17.493333-20.992L405.333333 469.333333h85.333334a21.333333 21.333333 0 0 1 20.992 17.493334L512 490.666667v42.666666a21.333333 21.333333 0 0 1-21.333333 21.333334z"  horiz-adv-x="1024" />

    
    <glyph glyph-name="da24_tuanduichengyuan" unicode="&#58927;" d="M213.333333 0a85.333333 85.333333 0 0 0-85.333333 85.333333v213.333334a85.333333 85.333333 0 0 0 85.333333 85.333333h426.666667c4.309333 0 8.576-0.341333 12.757333-0.938667l-6.4 0.725334a85.333333 85.333333 0 0 0 73.045334-53.845334 84.693333 84.693333 0 0 0 5.717333-24.917333L725.333333 298.666667v-213.333334a85.333333 85.333333 0 0 0-78.933333-85.12L640 0H213.333333z m597.333334 384a85.333333 85.333333 0 0 0 85.333333-85.333333v-213.333334a85.333333 85.333333 0 0 0-85.333333-85.333333h-75.306667a127.488 127.488 0 0 1 32.256 75.562667L768 85.333333v213.333334l-0.213333 7.509333A127.488 127.488 0 0 1 735.402667 384H810.666667z m-213.333334 384a170.666667 170.666667 0 1 0-37.418666-337.237333A212.778667 212.778667 0 0 1 640 597.333333a212.906667 212.906667 0 0 1-80 166.528C571.989333 766.592 584.533333 768 597.333333 768z m-4.394666-132.010667l0.256-1.066666a169.728 169.728 0 0 0 3.882666-47.061334L597.333333 597.333333a173.226667 173.226667 0 0 0-8.789333-54.186666 169.472 169.472 0 0 0-45.44-70.570667 171.861333 171.861333 0 0 0-30.293333-22.613333l-0.810667-0.426667a170.666667 170.666667 0 1 0 0 295.637333h0.042667a170.752 170.752 0 0 0 71.253333-80 168.917333 168.917333 0 0 0 8.96-26.453333l0.682667-2.730667z"  horiz-adv-x="1024" />

    
    <glyph glyph-name="xiao16_changzuojiantou" unicode="&#58921;" d="M429.248 681.344L128 380.16l301.248-301.248 90.496 90.496L369.28 320h511.936V448H376.96l142.72 142.848-90.496 90.496z"  horiz-adv-x="1024" />

    
    <glyph glyph-name="xiao16_changyoujiantou" unicode="&#58922;" d="M579.84 681.344l301.312-301.248-301.248-301.248-90.56 90.496L640 320H128V448h504.128l-142.72 142.848L579.84 681.344z"  horiz-adv-x="1024" />

    
    <glyph glyph-name="teda28_shangjia" unicode="&#58880;" d="M896 128a18.285714 18.285714 0 0 0 18.285714-18.285714v-109.714286a18.285714 18.285714 0 0 0-18.285714-18.285714h-768a18.285714 18.285714 0 0 0-18.285714 18.285714v109.714286a18.285714 18.285714 0 0 0 18.285714 18.285714h768z m-438.857143 219.428571a18.285714 18.285714 0 0 0 18.285714-18.285714v-109.714286a18.285714 18.285714 0 0 0-18.285714-18.285714h-329.142857a18.285714 18.285714 0 0 0-18.285714 18.285714v109.714286a18.285714 18.285714 0 0 0 18.285714 18.285714h329.142857z m250.660572 456.228572l245.284571-245.284572a18.285714 18.285714 0 0 0 0-25.856l-77.604571-77.604571a18.285714 18.285714 0 0 0-25.856 0L768 536.539429V219.428571a18.285714 18.285714 0 0 0-18.285714-18.285714H640a18.285714 18.285714 0 0 0-18.285714 18.285714V536.576l-81.627429-81.664a18.285714 18.285714 0 0 0-25.856 0l-77.604571 77.604571a18.285714 18.285714 0 0 0 0 25.856l245.284571 245.284572a18.285714 18.285714 0 0 0 25.892572 0zM128 566.857143h232.667429l-1.28-6.217143c-4.717714-28.16 3.803429-58.148571 25.526857-79.872L445.147429 420.571429H128a18.285714 18.285714 0 0 0-18.285714 18.285714v109.714286a18.285714 18.285714 0 0 0 18.285714 18.285714z m329.142857 219.428571a18.285714 18.285714 0 0 0 18.285714-18.285714v-67.401143L414.829714 640H128a18.285714 18.285714 0 0 0-18.285714 18.285714v109.714286a18.285714 18.285714 0 0 0 18.285714 18.285714h329.142857z"  horiz-adv-x="1024" />

    
    <glyph glyph-name="teda28_xiajia" unicode="&#58920;" d="M896 128a18.285714 18.285714 0 0 0 18.285714-18.285714v-109.714286a18.285714 18.285714 0 0 0-18.285714-18.285714h-768a18.285714 18.285714 0 0 0-18.285714 18.285714v109.714286a18.285714 18.285714 0 0 0 18.285714 18.285714h768z m-146.285714 658.285714a18.285714 18.285714 0 0 0 18.285714-18.285714v-317.110857l81.627429 81.627428a18.285714 18.285714 0 0 0 25.856 0l77.604571-77.604571a18.285714 18.285714 0 0 0 0-25.856l-245.284571-245.284571a18.285714 18.285714 0 0 0-25.892572 0l-245.284571 245.284571a18.285714 18.285714 0 0 0 0 25.856l77.604571 77.604571a18.285714 18.285714 0 0 0 25.856 0L621.714286 450.889143V768a18.285714 18.285714 0 0 0 18.285714 18.285714h109.714286z m-334.848-438.857143L475.428571 286.866286V219.428571a18.285714 18.285714 0 0 0-18.285714-18.285714h-329.142857a18.285714 18.285714 0 0 0-18.285714 18.285714v109.714286a18.285714 18.285714 0 0 0 18.285714 18.285714h286.866286z m30.208 219.428572l-60.16-60.196572A91.392 91.392 0 0 1 360.667429 420.571429H128a18.285714 18.285714 0 0 0-18.285714 18.285714v109.714286a18.285714 18.285714 0 0 0 18.285714 18.285714h317.074286z m12.068571 219.428571a18.285714 18.285714 0 0 0 18.285714-18.285714v-109.714286a18.285714 18.285714 0 0 0-18.285714-18.285714h-329.142857a18.285714 18.285714 0 0 0-18.285714 18.285714v109.714286a18.285714 18.285714 0 0 0 18.285714 18.285714h329.142857z"  horiz-adv-x="1024" />

    
    <glyph glyph-name="cebiandaohang20_yeji1" unicode="&#58919;" d="M870.4 793.6a51.2 51.2 0 0 0 51.2-51.2v-716.8a51.2 51.2 0 0 0-51.2-51.2H153.6a51.2 51.2 0 0 0-51.2 51.2V742.4a51.2 51.2 0 0 0 51.2 51.2h716.8z m-128-307.2h-51.2a25.6 25.6 0 0 1-25.6-25.6v-307.2a25.6 25.6 0 0 1 25.6-25.6h51.2a25.6 25.6 0 0 1 25.6 25.6v307.2a25.6 25.6 0 0 1-25.6 25.6z m-204.8 153.6h-51.2a25.6 25.6 0 0 1-25.6-25.6v-460.8a25.6 25.6 0 0 1 25.6-25.6h51.2a25.6 25.6 0 0 1 25.6 25.6v460.8a25.6 25.6 0 0 1-25.6 25.6z m-204.8-256h-51.2a25.6 25.6 0 0 1-25.6-25.6v-204.8a25.6 25.6 0 0 1 25.6-25.6h51.2a25.6 25.6 0 0 1 25.6 25.6v204.8a25.6 25.6 0 0 1-25.6 25.6z"  horiz-adv-x="1024" />

    
    <glyph glyph-name="xiao16_lie" unicode="&#58917;" d="M288 704a32 32 0 0 0 32-32v-576a32 32 0 0 0-32-32h-64a32 32 0 0 0-32 32v576a32 32 0 0 0 32 32h64z m256 0a32 32 0 0 0 32-32v-576a32 32 0 0 0-32-32h-64a32 32 0 0 0-32 32v576a32 32 0 0 0 32 32h64z m256 0a32 32 0 0 0 32-32v-576a32 32 0 0 0-32-32h-64a32 32 0 0 0-32 32v576a32 32 0 0 0 32 32h64z"  horiz-adv-x="1024" />

    
    <glyph glyph-name="xiao16_hang" unicode="&#58918;" d="M800 192a32 32 0 0 0 32-32v-64a32 32 0 0 0-32-32h-576a32 32 0 0 0-32 32v64a32 32 0 0 0 32 32h576z m0 256a32 32 0 0 0 32-32v-64a32 32 0 0 0-32-32h-576a32 32 0 0 0-32 32v64a32 32 0 0 0 32 32h576z m0 256a32 32 0 0 0 32-32v-64a32 32 0 0 0-32-32h-576a32 32 0 0 0-32 32v64a32 32 0 0 0 32 32h576z"  horiz-adv-x="1024" />

    
    <glyph glyph-name="xiao16_xiazhixiangjiantou" unicode="&#58915;" d="M512 0L210.752 301.248l90.496 90.496L448 245.12V768h128v-522.944l146.752 146.688 90.496-90.496L512 0z"  horiz-adv-x="1024" />

    
    <glyph glyph-name="xiao16_shangzhixiangjiantou" unicode="&#58916;" d="M512 768l301.248-301.248-90.496-90.496L576 522.88V0H448V522.944L301.248 376.256 210.752 466.752 512 768z"  horiz-adv-x="1024" />

    
    <glyph glyph-name="xiao16_dachengtiaojian" unicode="&#58911;" d="M832 768a64 64 0 0 0 64-64v-640a64 64 0 0 0-64-64H192a64 64 0 0 0-64 64V704a64 64 0 0 0 64 64h640z m-64-128H256v-512h512V640z m-128-128v-256H384V512h256z"  horiz-adv-x="1024" />

    
    <glyph glyph-name="xiao16_tianjiashijian" unicode="&#58912;" d="M512 832a448 448 0 1 0 0-896A448 448 0 0 0 512 832z m0-128a320 320 0 1 1 0-640A320 320 0 0 1 512 704z m64-64v-192h128v-128H448V640h128z"  horiz-adv-x="1024" />

    
    <glyph glyph-name="xiao16_feishuaijisuanfangfa" unicode="&#58913;" d="M832 768a64 64 0 0 0 64-64v-640a64 64 0 0 0-64-64H192a64 64 0 0 0-64 64V704a64 64 0 0 0 64 64h640z m-64-128H256v-512h512V640zM448 320v-128H320V320h128z m256 0v-128H576V320h128zM448 576v-128H320V576h128z m256 0v-128H576V576h128z"  horiz-adv-x="1024" />

    
    <glyph glyph-name="xiao16_shengxiaoriqi" unicode="&#58914;" d="M960 64a64 64 0 0 0-64-64H128a64 64 0 0 0-64 64V704a64 64 0 0 0 64 64h768a64 64 0 0 0 64-64v-640z m-128 384H192v-320h640V448zM384 384v-128H256V384h128z m192 0v-128H448V384h128z m192 0v-128h-128V384h128z m64 256H192v-64h640V640z"  horiz-adv-x="1024" />

    
    <glyph glyph-name="xiao16_jianhao" unicode="&#58896;" d="M832 448v-128H192V448z"  horiz-adv-x="1024" />

    
    <glyph glyph-name="zhong20_gantanhao" unicode="&#58910;" d="M512 844.8a460.8 460.8 0 1 0 0-921.6 460.8 460.8 0 0 0 0 921.6z m51.2-665.6H460.8v-102.4h102.4v102.4z m0 512H460.8v-409.6h102.4V691.2z"  horiz-adv-x="1024" />

    
    <glyph glyph-name="xiao16_baoxianzeren" unicode="&#58886;" d="M800 832A96 96 0 0 0 896 736v-525.888a96 96 0 0 0-46.592-82.304l-288-172.8a96 96 0 0 0-98.816 0l-288 172.8A96 96 0 0 0 128 210.112V736A96 96 0 0 0 224 832zM768 704H256v-475.776l256-153.6 256 153.664V704zM608 512a32 32 0 0 0 32-32v-64a32 32 0 0 0-32-32h-192a32 32 0 0 0-32 32v64a32 32 0 0 0 32 32h192z"  horiz-adv-x="1024" />

    
    <glyph glyph-name="xiao16_dangqianchakan" unicode="&#58887;" d="M512 768c224 0 448-192 448-384s-224-384-448-384-448 192-448 384 224 384 448 384z m0-128C354.688 640 192 500.544 192 384c0-116.544 162.688-256 320-256s320 139.456 320 256c0 116.544-162.688 256-320 256z m0-128a128 128 0 1 0 0-256 128 128 0 0 0 0 256z"  horiz-adv-x="1024" />

    
    <glyph glyph-name="xiao16_gengduoxinxi" unicode="&#58888;" d="M512 832a448 448 0 1 0 0-896A448 448 0 0 0 512 832z m0-128a320 320 0 1 1 0-640A320 320 0 0 1 512 704z m64-256v-320H448V448h128z m0 192v-128H448V640h128z"  horiz-adv-x="1024" />

    
    <glyph glyph-name="xiao16_shangchuan" unicode="&#58889;" d="M800 128a32 32 0 0 0 32-32v-64a32 32 0 0 0-32-32h-576a32 32 0 0 0-32 32v64a32 32 0 0 0 32 32h576zM512 794.496l301.248-301.248-90.496-90.496L576 549.44V192H448V549.44L301.248 402.752 210.752 493.248 512 794.496z"  horiz-adv-x="1024" />

    
    <glyph glyph-name="xiao16_jiahao" unicode="&#58890;" d="M576 704v-256h256v-128H576v-256H448V320.064L192 320V448l256 0.064V704h128z"  horiz-adv-x="1024" />

    
    <glyph glyph-name="xiao16_shezhi" unicode="&#58891;" d="M699.072 771.968a64 64 0 0 0 55.424-32L941.44 416a64 64 0 0 0 0-64l-187.008-323.968a64 64 0 0 0-55.424-32H324.928a64 64 0 0 0-55.424 32L82.56 352a64 64 0 0 0 0 64L269.44 739.968a64 64 0 0 0 55.424 32h374.144z m-36.928-127.936H361.92L211.84 384l150.08-259.968h300.224L812.224 384l-150.08 260.032zM512 512a128 128 0 1 0 0-256 128 128 0 0 0 0 256z"  horiz-adv-x="1024" />

    
    <glyph glyph-name="xiao16_tihuan" unicode="&#58892;" d="M896 320v-128H375.616l61.632-92.48-106.496-71.04L136.32 320H896z m-202.752 419.52L887.68 448H128V576h520.384l-61.632 92.48 106.496 71.04z"  horiz-adv-x="1024" />

    
    <glyph glyph-name="xiao16_xiajiantou" unicode="&#58893;" d="M722.752 557.248l90.496-90.496L512 165.504 210.752 466.752l90.496 90.496L512 346.56z"  horiz-adv-x="1024" />

    
    <glyph glyph-name="xiao16_dangqianyincang" unicode="&#58894;" d="M192 448l0.384-10.496C201.216 318.72 357.568 192 512 192c158.976 0 320 134.208 320 256h128l-0.32-12.928c-4.352-89.792-53.76-176.32-127.616-243.2l119.36-206.72-110.848-64-114.048 197.504A485.312 485.312 0 0 0 576 68.928L576-128H448v196.864a485.312 485.312 0 0 0-150.528 49.792l-114.048-197.504-110.848 64 119.36 206.72C114.56 262.016 64 353.664 64 448h128z"  horiz-adv-x="1024" />

    
    <glyph glyph-name="xiao16_sousuo" unicode="&#58895;" d="M512 768a384 384 0 0 0 313.024-606.464l116.224-116.288-90.496-90.496-116.288 116.224A384 384 0 1 0 512 768z m0-128a256 256 0 1 1 0-512 256 256 0 0 1 0 512z"  horiz-adv-x="1024" />

    
    <glyph glyph-name="xiao16_shangjiantou" unicode="&#58897;" d="M722.752 165.504L813.248 256 512 557.248 210.752 256l90.496-90.496L512 376.192z"  horiz-adv-x="1024" />

    
    <glyph glyph-name="xiao16_yuanxingchahao" unicode="&#58898;" d="M512 832a448 448 0 1 0 0-896A448 448 0 0 0 512 832zM410.496 576A64 64 0 0 1 320 485.504L421.44 384 320 282.496A64 64 0 0 1 410.496 192L512 293.504 613.504 192A64 64 0 1 1 704 282.496L602.496 384 704 485.504A64 64 0 1 1 613.504 576L512 474.56z"  horiz-adv-x="1024" />

    
    <glyph glyph-name="xiao16_fuzhi" unicode="&#58899;" d="M576 768a64 64 0 0 0 64-64v-640a64 64 0 0 0-64-64H192a64 64 0 0 0-64 64V704a64 64 0 0 0 64 64h384z m256 0a64 64 0 0 0 64-64v-640a64 64 0 0 0-64-64h-128v128h64V640h-64V768h128zM512 640H256v-512h256V640z"  horiz-adv-x="1024" />

    
    <glyph glyph-name="xiao16_yuanxingjianhao" unicode="&#58900;" d="M512 832a448 448 0 1 0 0-896A448 448 0 0 0 512 832z m256-384H256v-128h512V448z"  horiz-adv-x="1024" />

    
    <glyph glyph-name="xiao16_yuanxingkongxinchahao" unicode="&#58901;" d="M512 832a448 448 0 1 0 0-896A448 448 0 0 0 512 832z m0-128a320 320 0 1 1 0-640A320 320 0 0 1 512 704zM410.496 576L512 474.56 613.504 576A64 64 0 0 0 704 485.504L602.496 384 704 282.496A64 64 0 1 0 613.504 192L512 293.504 410.496 192A64 64 0 1 0 320 282.496L421.44 384 320 485.504A64 64 0 0 0 410.496 576z"  horiz-adv-x="1024" />

    
    <glyph glyph-name="xiao16_bianji" unicode="&#58902;" d="M480 768a32 32 0 0 0 32-32v-64a32 32 0 0 0-32-32H256v-512h512V352a32 32 0 0 0 32 32h64a32 32 0 0 0 32-32V64a64 64 0 0 0-64-64H192a64 64 0 0 0-64 64V704a64 64 0 0 0 64 64h288z m397.248-18.752a64 64 0 0 0 0-90.496l-384-384A63.808 63.808 0 0 0 448 256H384V320c0 16.384 6.272 32.768 18.752 45.248l384 384a64 64 0 0 0 90.496 0z"  horiz-adv-x="1024" />

    
    <glyph glyph-name="xiao16_shouqiangaozhi" unicode="&#58903;" d="M832 832a64 64 0 0 0 64-64v-768a64 64 0 0 0-64-64H192a64 64 0 0 0-64 64V768a64 64 0 0 0 64 64z m-64-128H256v-640h512V704zM608 320a32 32 0 0 0 32-32v-64a32 32 0 0 0-32-32h-192a32 32 0 0 0-32 32v64a32 32 0 0 0 32 32h192z m0 256a32 32 0 0 0 32-32v-64a32 32 0 0 0-32-32h-192a32 32 0 0 0-32 32v64a32 32 0 0 0 32 32h192z"  horiz-adv-x="1024" />

    
    <glyph glyph-name="xiao16_xiazai" unicode="&#58904;" d="M800 128a32 32 0 0 0 32-32v-64a32 32 0 0 0-32-32h-576a32 32 0 0 0-32 32v64a32 32 0 0 0 32 32h576zM576 768v-357.44l146.752 146.688 90.496-90.496L512 165.504 210.752 466.752l90.496 90.496L448 410.56V768h128z"  horiz-adv-x="1024" />

    
    <glyph glyph-name="xiao16_lajitong" unicode="&#58905;" d="M224 576a32 32 0 0 0 32-32V128h512V544a32 32 0 0 0 32 32h64a32 32 0 0 0 32-32V128a128 128 0 0 0-118.4-127.68L768 0H256a128 128 0 0 0-127.68 118.4L128 128V544a32 32 0 0 0 32 32h64z m192-64a32 32 0 0 0 32-32v-192a32 32 0 0 0-32-32h-64a32 32 0 0 0-32 32v192a32 32 0 0 0 32 32h64z m256 0a32 32 0 0 0 32-32v-192a32 32 0 0 0-32-32h-64a32 32 0 0 0-32 32v192a32 32 0 0 0 32 32h64zM576 832v-64h288a32 32 0 0 0 32-32v-64a32 32 0 0 0-32-32h-704a32 32 0 0 0-32 32v64a32 32 0 0 0 32 32H448V832h128z"  horiz-adv-x="1024" />

    
    <glyph glyph-name="xiao16_gerenxinxi" unicode="&#58906;" d="M800 192a96 96 0 0 0 95.552-86.784L896 96V0h-128v64H256v-64H128v96a96 96 0 0 0 86.784 95.552L224 192h576zM512 768a256 256 0 1 0 0-512 256 256 0 0 0 0 512z m0-128a128 128 0 1 1 0-256 128 128 0 0 1 0 256z"  horiz-adv-x="1024" />

    
    <glyph glyph-name="xiao16_shengcheng" unicode="&#58907;" d="M896 256v-192a64 64 0 0 0-64-64h-192v128h128v128h128zM256 256v-128h128v-128H192a64 64 0 0 0-64 64v192h128z m320 256a64 64 0 0 0 64-64v-128a64 64 0 0 0-64-64H448a64 64 0 0 0-64 64V448a64 64 0 0 0 64 64h128zM384 768v-128H256v-128H128V704a64 64 0 0 0 64 64h192z m448 0a64 64 0 0 0 64-64v-192h-128V640h-128V768h192z"  horiz-adv-x="1024" />

    
    <glyph glyph-name="xiao16_yuanxingjiahao" unicode="&#58908;" d="M512 832a448 448 0 1 0 0-896A448 448 0 0 0 512 832z m64-192H448v-192H256v-128h192v-192h128V320h192V448H576V640z"  horiz-adv-x="1024" />

    
    <glyph glyph-name="xiao16_tuichudenglu" unicode="&#58909;" d="M783.552 655.552A384 384 0 1 0 230.4 645.12l9.984 10.368 90.56-90.56a256 256 0 1 1 370.816-9.216l-8.832 9.216 90.56 90.56zM576 768v-384H448V768h128z"  horiz-adv-x="1024" />

    
    <glyph glyph-name="da24_bianji" unicode="&#58884;" d="M618.666667 725.333333a21.333333 21.333333 0 0 0 21.333333-21.333333v-42.666667a21.333333 21.333333 0 0 0-21.333333-21.333333H256v-512h512v320a21.333333 21.333333 0 0 0 21.333333 21.333333h42.666667a21.333333 21.333333 0 0 0 21.333333-21.333333V85.333333a42.666667 42.666667 0 0 0-42.666666-42.666666H213.333333a42.666667 42.666667 0 0 0-42.666666 42.666666V682.666667a42.666667 42.666667 0 0 0 42.666666 42.666666h405.333334z m222.165333-12.501333a42.666667 42.666667 0 0 0 3.541333-56.32l-3.541333-4.010667-426.666667-426.666666A42.538667 42.538667 0 0 0 384 213.333333H341.333333v42.666667c0 9.216 2.986667 18.474667 8.96 26.154667l3.541334 4.010666 426.666666 426.666667a42.666667 42.666667 0 0 0 60.330667 0z"  horiz-adv-x="1024" />

    
    <glyph glyph-name="da24_chahao" unicode="&#58885;" d="M324.821333 631.04l4.010667-3.541333L512 444.373333l183.168 183.125334a42.666667 42.666667 0 0 0 63.872-56.32l-3.541333-4.010667L572.373333 384l183.125334-183.168a42.666667 42.666667 0 0 0-56.32-63.872l-4.010667 3.541333L512 323.626667l-183.168-183.125334a42.666667 42.666667 0 0 0-63.872 56.32l3.541333 4.010667L451.626667 384 268.501333 567.168a42.666667 42.666667 0 0 0 56.32 63.872z"  horiz-adv-x="1024" />

    
    <glyph glyph-name="cebiandaohang20_shangpin" unicode="&#58881;" d="M819.2 793.6a51.2 51.2 0 0 0 51.2-51.2v-568.1152a51.2 51.2 0 0 0-29.5424-46.4384l-307.2-143.36a51.2 51.2 0 0 0-43.3152 0l-307.2 143.36A51.2 51.2 0 0 0 153.6 174.2848V742.4a51.2 51.2 0 0 0 51.2 51.2h614.4z m-307.2-153.6L451.7888 518.0416l-134.5536-19.5584 97.3824-94.9248-23.04-134.0416L512 332.8l120.3712-63.2832-22.9888 134.0416 97.3824 94.9248-134.5536 19.5584L512 640z"  horiz-adv-x="1024" />

    
    <glyph glyph-name="cebiandaohang20_zhuxiaogongju" unicode="&#58882;" d="M716.8 793.6a51.2 51.2 0 0 0 51.2-51.2v-153.6h102.4a51.2 51.2 0 0 0 51.2-51.2v-512a51.2 51.2 0 0 0-51.2-51.2H153.6a51.2 51.2 0 0 0-51.2 51.2V537.6a51.2 51.2 0 0 0 51.2 51.2h102.4V742.4a51.2 51.2 0 0 0 51.2 51.2h409.6z m-281.6-409.6h-51.2a25.6 25.6 0 0 1-25.6-25.6v-153.6a25.6 25.6 0 0 1 25.6-25.6h51.2a25.6 25.6 0 0 1 25.6 25.6v153.6a25.6 25.6 0 0 1-25.6 25.6z m204.8 0h-51.2a25.6 25.6 0 0 1-25.6-25.6v-153.6a25.6 25.6 0 0 1 25.6-25.6h51.2a25.6 25.6 0 0 1 25.6 25.6v153.6a25.6 25.6 0 0 1-25.6 25.6z m25.6 307.2H358.4v-102.4h307.2V691.2z"  horiz-adv-x="1024" />

    


  </font>
</defs>
</svg>
